<svg xmlns="http://www.w3.org/2000/svg" width="256" height="256" viewBox="0 0 256 256">
  <g fill="none" fill-rule="evenodd">
    <rect width="256" height="256" fill="#FFF"/>
    <path fill="#000" d="M121,147 C113.467722,154.151832 109.45067,158.39267 105,162 C96.6906212,168.759162 86.5298417,173 74,173 C59.1193666,173 49.1948843,167.581152 42,160 C36.90743,154.387435 31,144.492147 31,129 C31,112.21466 37.8526188,101.848168 44,96 C54.8660171,85.1204188 69.7527406,83 81,83 C91.4920828,83 104.015834,84.6492147 115,92 C122.210719,96.9005236 129.535932,105.382199 133,110 C138.042631,103.968586 145.131547,96.9005236 152,92 C160.727162,86.0628272 170.651644,83 182,83 C197.589525,83 207.27771,88.8900524 213,95 C218.619976,100.198953 225,109.858639 225,127 C225,139.780105 221.219245,149.439791 214,158 C202.079172,170.643979 188.846529,173 176,173 C164.27162,173 152.220463,171.350785 140,164 C133.789281,160.041885 126.227771,153.209424 121,147 Z M109,132 C106.176471,127.407583 98.8823529,117.454976 94,112 C85.7058824,104.184834 78.4117647,103 74,103 C68.0588235,103 62.4117647,106.317536 59,110 C56.0588235,113.663507 53,119.587678 53,129 C53,134.279621 54.1764706,141.388626 59,147 C63.3529412,151.104265 68.7647059,153 75,153 C83.1176471,153 87.8235294,150.630332 93,146 C98.6470588,142.336493 104.294118,137.123223 109,132 Z M145,126 C149.239669,132.245283 155.128099,139.084906 162,145 C166.669421,148.518868 173.5,153 182,153 C187.632231,153 193.520661,150.169811 197,145 C201.057851,140.028302 202,133.896226 202,129 C202,118.09434 198.702479,112.198113 196,109 C191.871901,105.358491 185.747934,103 180,103 C172.322314,103 166.669421,106.066038 162,110 C154.892562,114.320755 149.710744,119.273585 145,126 Z"/>
  </g>
</svg>
